# xmcd
#
# Track frame offsets:
# 150
# 16535
# 36690
# 60437
# 74095
# 93427
# 104922
# 121847
# 136017
# 150765
# 172252
# 193970
# 210547
# 230190
# 241175
# 262642
# 283127
# 306657
#
# Disc length: 4424 seconds
#
#
# Revision: 0
# Processed by: cddbd v1.5.1PL0 Copyright (c) Steve Scherf et al.
# Submitted via: FreeRIP 2.941 
#
DISCID=08114612
DTITLE=papete - bandeira de aço
DYEAR=2005
DGENRE=bumba boi
TTITLE0=boi da lua
TTITLE1=dente de ouro
TTITLE2=catirina
TTITLE3=boi de catirina
TTITLE4=eulália
TTITLE5=de cajari pra capital
TTITLE6=flor do mal
TTITLE7=engenho de flores
TTITLE8=bandeira de aço
TTITLE9=bela mocidade
TTITLE10=beleza de gado
TTITLE11=orvalho da campina
TTITLE12=rosa amarela
TTITLE13=vagalume da madrugada
TTITLE14=pindaré
TTITLE15=te amo, sim!!!
TTITLE16=mimoso
TTITLE17=pot-pourri de toadas, boizinho de viola, pindaré, recado, linda garota, lições de vida, luzes e estrelas
EXTD=
EXTT0=
EXTT1=
EXTT2=
EXTT3=
EXTT4=
EXTT5=
EXTT6=
EXTT7=
EXTT8=
EXTT9=
EXTT10=
EXTT11=
EXTT12=
EXTT13=
EXTT14=
EXTT15=
EXTT16=
EXTT17=
PLAYORDER=
